<svg id="svg" xmlns="http://www.w3.org/2000/svg" xmlns:xlink="http://www.w3.org/1999/xlink" width="400" height="119.04218928164197" viewBox="0, 0, 400,119.04218928164197"><g id="svgg"><path id="path0" d="M60.661 0.681 C 21.951 9.292,-9.714 62.245,2.285 98.303 C 12.096 127.785,51.760 125.649,75.026 94.386 C 79.055 88.973,79.050 88.940,74.184 88.940 L 70.429 88.940 68.396 91.050 C 58.540 101.276,44.299 106.233,33.951 103.037 C 12.274 96.341,14.173 57.098,37.492 29.875 C 59.488 4.196,89.656 5.972,83.979 32.611 L 83.687 33.979 75.481 34.270 C 62.944 34.715,55.199 36.722,48.285 41.318 C 32.799 51.613,35.773 72.309,53.092 74.762 C 67.304 76.774,83.987 65.519,92.412 48.233 L 93.691 45.610 166.347 45.610 L 239.004 45.610 236.250 51.197 C 234.735 54.270,233.317 57.108,233.099 57.503 C 232.881 57.899,229.777 63.953,226.202 70.958 C 214.934 93.036,210.395 99.721,203.620 104.218 C 196.942 108.650,191.148 104.167,194.397 97.081 C 195.511 94.651,196.350 93.174,209.081 71.248 C 212.764 64.905,215.893 59.414,216.033 59.048 C 216.255 58.469,213.534 58.381,195.360 58.381 L 174.430 58.381 172.751 61.688 C 171.828 63.506,170.181 66.636,169.092 68.643 C 168.004 70.650,166.117 74.139,164.900 76.397 C 154.221 96.206,146.166 106.037,140.023 106.756 C 134.149 107.443,131.486 103.436,134.055 97.779 C 134.902 95.914,142.630 82.435,151.713 66.982 C 154.314 62.556,156.442 58.811,156.442 58.658 C 156.442 58.506,152.491 58.381,147.662 58.381 L 138.881 58.381 135.499 64.196 C 115.070 99.322,110.011 105.797,102.986 105.811 C 99.093 105.819,97.605 104.423,97.605 100.762 C 97.605 98.176,97.847 97.698,108.096 80.031 C 119.739 59.961,120.410 58.790,120.410 58.565 C 120.410 58.464,116.455 58.381,111.620 58.381 L 102.830 58.381 97.836 66.933 C 80.552 96.526,80.274 97.113,80.274 103.962 C 80.274 114.061,86.098 119.407,96.609 118.957 C 104.189 118.632,109.320 115.589,115.829 107.558 L 117.559 105.423 117.842 107.492 C 119.404 118.884,134.408 122.815,147.341 115.221 C 155.673 110.328,161.982 102.119,173.774 80.826 L 180.388 68.884 186.468 68.877 L 192.549 68.871 191.642 70.353 C 178.561 91.726,176.055 97.134,176.055 103.992 C 176.055 114.115,181.044 118.814,191.790 118.814 C 201.966 118.814,210.169 113.856,216.981 103.589 C 218.081 101.932,218.991 100.951,219.096 101.309 C 219.197 101.655,219.532 102.862,219.840 103.991 C 226.925 129.980,266.280 120.526,276.126 90.469 L 276.895 88.122 281.118 90.010 L 285.341 91.898 285.316 97.602 C 285.253 111.825,292.141 118.795,306.271 118.808 C 317.869 118.819,326.635 114.228,337.286 102.565 L 340.479 99.069 340.775 101.872 C 342.398 117.212,359.380 123.782,376.055 115.521 C 384.242 111.464,391.419 104.747,397.868 95.102 C 400.735 90.815,400.719 90.764,396.438 90.764 L 392.876 90.764 390.676 93.313 C 378.012 107.982,356.214 110.347,356.214 97.053 L 356.214 95.325 361.345 95.324 C 381.332 95.318,395.942 85.291,395.373 71.971 C 394.622 54.404,371.520 51.077,355.511 66.231 C 351.285 70.231,348.117 74.306,345.479 79.133 C 341.352 86.684,335.654 93.858,330.539 97.942 C 328.731 99.385,327.149 100.693,327.024 100.848 C 326.899 101.003,325.051 101.969,322.919 102.994 C 311.531 108.469,301.650 105.962,300.680 97.351 L 300.451 95.325 305.968 95.325 C 332.274 95.325,349.518 75.764,335.530 61.788 C 323.379 49.647,299.115 59.597,289.363 80.720 C 287.769 84.173,287.900 84.167,280.913 81.063 L 278.360 79.929 278.094 75.426 C 277.090 58.442,262.390 51.033,249.142 60.833 L 246.288 62.944 250.627 54.277 L 254.965 45.610 261.918 45.602 C 282.329 45.577,295.060 40.195,300.436 29.318 C 307.086 15.863,296.423 2.670,280.731 4.939 C 268.449 6.714,258.070 14.807,247.434 30.901 L 245.248 34.208 171.394 34.208 L 97.540 34.208 97.899 31.585 C 99.962 16.513,94.365 5.900,82.050 1.530 C 77.806 0.025,65.762 -0.454,60.661 0.681 M286.355 17.162 C 291.279 20.385,288.223 28.418,280.838 31.664 C 276.691 33.487,261.345 35.293,261.345 33.959 C 261.345 33.060,266.645 26.097,269.519 23.222 C 275.904 16.833,282.322 14.523,286.355 17.162 M78.447 47.320 C 70.298 61.201,56.499 68.224,52.405 60.574 C 48.300 52.905,58.762 45.848,74.503 45.667 L 79.452 45.610 78.447 47.320 M259.246 69.236 C 263.748 71.867,263.883 81.732,259.545 90.992 C 249.923 111.529,229.165 110.626,234.903 89.921 C 238.871 75.604,251.613 64.776,259.246 69.236 M324.452 69.235 C 327.413 71.868,326.859 76.942,323.233 80.413 C 319.738 83.758,314.872 85.545,307.440 86.212 C 301.771 86.720,302.021 86.873,303.446 83.761 C 308.527 72.661,319.654 64.967,324.452 69.235 M378.776 68.607 C 382.995 70.370,382.655 76.806,378.128 80.888 C 374.531 84.131,369.190 85.882,361.345 86.388 L 357.582 86.631 358.235 85.067 C 362.788 74.173,372.832 66.124,378.776 68.607 " stroke="none" fill="#fd4f35" fill-rule="evenodd"></path></g></svg>